<svg xmlns="http://www.w3.org/2000/svg" version="1.1"
     width="1000" height="1125" viewBox="0 0 1000 1125">
    <g transform="matrix(1,0,0,1,0,0)">
        <svg viewBox="0 0 320 360" data-background-color="#010536" preserveAspectRatio="xMidYMid meet" height="1125"
             width="1000" xmlns="http://www.w3.org/2000/svg">
            <g id="tight-bounds" transform="matrix(1,0,0,1,0,0)">
                <svg viewBox="0 0 320 360" height="360" width="320">
                    <g>
                        <svg></svg>
                    </g>
                    <g>
                        <svg viewBox="0 0 320 360" height="360" width="320">
                            <g>
                                <path xmlns="http://www.w3.org/2000/svg"
                                      d="M165.217 303.356c-1.404-1.755-2.809-0.702-2.808-1.755-8.426 2.106-24.223-3.511-30.894-2.809 1.404-2.106-2.106-1.755-2.106-3.159-1.404 2.106-2.809 0-4.915 0.702-2.106-5.266-10.532-1.404-11.585-8.075-4.915 0-6.67-2.809-11.586-5.617 0.351-0.351 0.702-0.351 1.054-0.702-2.457-0.351-2.457-1.755-4.564-1.755l0.702-1.405c-3.862-0.702-5.266-6.67-10.883-8.776-1.755-0.351-5.617-6.319-7.723-7.724-1.053-0.702-2.809-0.702-0.352-1.053-0.351-0.351-0.351-1.053 0-1.404-2.457-0.702-2.809-2.809-5.968-3.862-0.351-1.053 0.702-1.755 0-2.457-0.702-0.351-1.755 0.351-2.457 0-0.351 6.319 6.67 7.021 8.777 12.287-0.702-0.702-1.755-2.809-2.458-1.404-0.351 1.053 2.809 4.915 2.809 2.808-1.053 0.702-1.404-1.053-0.703-1.404 1.053 1.755 3.16 1.404 3.16 2.809-1.053 1.053-2.457-1.053-2.106 0.702 3.16 1.755 2.809 3.511 4.563 5.968-1.404-1.755-1.755 1.404-3.159 0-0.351-5.266-6.319-4.213-6.319-9.479-0.702-1.755-1.404-0.351-2.458-1.053 1.404-1.404-4.213-6.319-4.213-4.564-1.755-2.106-0.702-2.809-1.053-4.213-1.404-0.351-0.351 1.404-1.404 0.351 1.404-2.457-1.755-5.617-3.862-8.074l1.405-0.702c-2.457-1.404-2.809-4.213-4.564-7.373-2.106 3.16 4.213 10.181 3.159 11.585 0 0.351 2.457 3.16 3.16 4.564 2.809 4.915 4.915 10.883 8.777 13.692-0.702-0.351-0.351-2.457 0.702-1.404 0 1.053-0.702 2.106-0.702 3.159 2.106 2.106 3.862 3.862 5.968 5.968-4.564-2.809-9.128-5.617-12.288-9.83 1.755-0.351 3.511 2.809 4.915 2.458-3.511-2.809-2.457-3.862-3.861-7.372-1.404-1.053 0.351 1.404-1.054 1.755-4.564-4.213-8.075-6.67-10.181-10.532 0.351-0.351 0.702-0.702 0.703-1.404-0.351-0.351-0.351-0.351-0.703-0.702 2.106 2.106 2.809 3.862 5.266 4.212-1.053-1.053 0-1.404-1.404-2.457-0.702-1.404-1.755 0.702-2.457-0.351 0.702-1.053 0-2.457 0-3.511-0.702 0-1.404 0-1.756-1.053-0.702-0.351-1.053 0-1.404 0.702-0.351-0.351-0.351-1.053-0.702-1.404v-0.351c-0.351-0.351-0.702-1.053-1.053-1.405-2.809-7.372-4.564-17.202-8.426-23.521 1.053-4.213-0.702-12.638-1.755-14.745 1.053-1.755 0.351-9.83-0.351-11.234-1.755 0.702 0.351 4.564-1.404 5.617-1.755-7.723 1.053-16.5 0.351-23.521 0.702 0 1.404 0 1.404-0.351-1.053-1.053 0.702-3.16 0.351-5.617 1.404-3.16-3.16 4.564-3.16 7.723-0.351 0.702-1.755 0-1.404 1.756 0 2.457 0.702 7.372-0.702 10.883-0.702 0-0.702-0.702-1.404-0.351-0.351 1.755-0.702 3.862-1.053 5.617-0.351-0.702-0.702-1.755-0.703-2.107-1.755-8.777 0-18.958-0.702-26.33 1.404 0 1.404-2.106 2.458-2.808-0.351 2.809-1.053 6.319 0.702 7.021 1.404-13.692 4.213-28.787 10.532-43.532 4.564-10.883 11.234-21.766 19.308-30.543 0.702 1.053-0.351 3.511 0 4.564 7.021-7.372 11.585-16.149 19.309-21.064 0.351 1.755-3.16 3.16-3.16 4.564 3.16-3.16 4.213-2.106 7.724-3.159 1.053-1.404-1.404 0-1.756-1.405 2.106-1.404 3.511-3.16 4.915-4.212 0 0.351-0.351 0.351-0.351 0.702 3.862-1.053 4.213-3.16 7.022-3.862-0.351-0.351-1.053-0.702-2.107-0.351 0.702-0.351 1.755-1.053 2.809-1.404-0.351 0-0.351 0.351-0.702 0.351 2.106-1.053 0.351 0.351 0.351 1.053 0.351 0 0.702-0.351 0.702-0.351-2.106 1.404-3.511 2.106-4.213 4.564 1.053-0.702 1.404 0 2.809-1.054 1.404-0.702-0.351-1.755 0.702-2.457 1.053 0.702 2.457 0.351 3.51 0.351 0-0.702 0.351-1.404 1.054-1.755 0.351-0.702 0-1.053-0.352-1.053 0.351-0.351 0.702-0.351 1.405-0.703 0 0 0.351 0 0.351 0.351 5.968-2.809 12.638-5.266 18.957-7.372 3.862-0.351 8.777-0.351 10.883-2.808-0.702 0-1.404 0.351-1.755 0 0.351 0 1.053-0.351 1.404-0.351 0.702 0.702 1.755 0 0.702 1.404 0.351 0 0.351 0 0.703-0.351 0 0.351 0 0.351 0.351 0.702 0.351 0 0.702-0.351 1.053-1.053 0.351 0 0.702 0 1.053-0.351l-0.351 0.351c2.809-0.702 5.266-0.351 9.128-1.054 0-0.351 0-0.702 0-1.053 0.702 0 1.053-0.351 1.755-0.351v0.351c1.404-0.702 2.809 0.702 2.808 0 0.351 0 0.351 0 0.703 0 0 0.702-0.351 1.053-0.351 1.405 1.755 0 2.809 0 3.51-1.054-0.351-0.351-0.702-0.351-1.053-0.351 0.702 0 1.404-0.351 2.106-0.702 1.053 0.351 1.404 0.702 1.405 2.107 1.755-3.16 7.372 0.702 9.829 0 1.053 0 0.702-1.404 1.405-2.107 0.351 0 0.702 0 1.053 0 1.755 1.404 4.213 2.809 7.372 3.16-2.809-0.702 0.351-1.053 0.702-1.405-0.702 0-0.702-0.351-0.702-0.702 1.053 0 2.106 0.351 3.16 0.351 0 0.702 0.351 1.053 1.053 1.054 0.702 0 0.702-0.351 0.702-1.054 1.053 0 1.755 0 2.809 0.351-0.351 1.404 1.755 1.755 2.457 2.809-2.809-0.702-5.968-1.755-7.021 0 11.234 2.457 23.521 5.968 35.457 11.936 0 0 0 0 0 0.351h0.352c2.106 1.053 4.213 2.106 6.319 3.16 1.404 0.702 2.457 1.404 3.861 2.457 0 0.351 0 0.702 0.703 0.702h0.351c1.404 1.053 2.809 1.755 4.212 2.809 1.404 2.106 2.809 4.915 5.266 4.213 5.266 8.075 10.883 11.234 15.447 19.659 0.351-1.404 1.404 3.16 3.16 3.511-2.809-0.351 1.755 1.755-1.053 1.404 2.457 2.457 3.16 3.511 3.51 6.319-0.702-1.404-1.053-1.755-1.404-0.351-0.351 2.106 2.457-0.351 3.511 1.756-2.106 0-1.404 1.404-1.054 3.159 1.053-1.053 0.702-2.106 1.756-1.755 1.404 1.404-0.702 1.755-0.351 2.809 1.053-1.404 1.404-0.702 2.808 0-1.755 0.351 1.053 2.809-1.053 1.755 1.404 1.755 1.755 2.809 1.053 4.564-1.404-2.106-0.351-3.511-2.457-3.16 4.213 3.511 2.106 11.585 7.021 12.287-3.16 0.702 0 2.106-1.755 2.458 2.106 0.702 1.053 3.511 3.51 4.213-0.351 1.755-1.053 2.809-1.404 4.563 1.053 1.404 1.404 4.213 3.16 4.564-1.053 1.053-0.351 3.862-1.404 4.915 1.404-0.702 2.106-0.702 3.159 0.702-1.755 1.404-0.351 2.809-1.404 3.16 3.16 8.075-0.702 24.575 1.053 30.894-2.106-1.053-1.404 2.457-2.808 2.457 2.457 1.053 0.351 2.809 1.404 4.564-4.915 2.809 0 10.532-6.67 12.287 0.702 4.915-2.106 7.021-4.213 12.288-0.351-0.351-0.351-0.702-0.702-1.054-0.351 2.457-1.755 2.809-1.054 4.915l-1.404-0.702c0 3.862-5.968 5.968-7.372 11.936-0.351 1.755-5.617 6.319-7.022 8.777-0.702 1.053-0.351 2.809-1.053 0.351-0.351 0.351-1.053 0.351-1.404 0.351-0.351 2.457-2.457 3.16-3.16 6.319-0.702 0.351-1.755-0.702-2.457 0.351 0 0.702 0.702 1.755 0.351 2.458 6.319-0.351 6.319-7.723 11.234-10.181-0.351 1.053-2.457 2.106-1.053 2.808 1.053 0 4.213-3.511 2.457-3.159 1.053 0.702-1.053 1.404-1.404 1.053 1.755-1.404 1.053-3.16 2.458-3.511 1.053 0.702-1.053 2.457 1.053 2.107 1.404-3.16 3.16-3.511 5.266-5.266-1.404 1.404 1.755 1.755 0.351 3.159-5.266 1.053-3.511 7.021-8.777 7.724-1.404 1.053-0.351 1.404-0.702 2.457-1.755-1.053-5.617 4.915-4.213 4.564-1.755 1.755-2.809 1.053-4.212 1.404-0.351 1.404 1.404 0.351 0.702 1.405-2.457-1.053-5.617 2.457-7.724 4.915l-1.053-1.054c-1.053 2.809-3.862 3.16-7.021 5.266 3.511 1.755 9.479-5.617 11.234-4.564 0.351 0 3.16-2.809 4.213-3.861 4.564-3.511 10.181-6.319 12.287-10.181-0.351 0.702-2.457 0.702-1.404-0.351 1.053-0.351 2.106 0.351 3.159 0.351 5.617-7.723 12.638-14.043 17.905-23.17 0.351-0.351 0.702-1.053 1.053-1.756-0.702 2.106-1.755 3.862-2.458 5.968-5.617 3.862-7.723 15.096-14.393 16.851 0.351 3.862-3.16 4.915-4.915 9.479-1.053 1.404-1.755-1.053-2.809 0.702 1.053 4.915-8.777 4.564-8.425 9.128-0.702 0.351-1.755 0.702-2.458 1.404h-0.351c-0.351 0.351-0.351 0.351-0.702 0.702-1.755 1.053-3.16 2.106-4.564 3.16-4.915 2.809-11.585 4.915-16.851 7.723v-0.351c-1.404 0.702-3.16 0.351-2.809 1.756-1.053 0.702-2.106 1.404-3.159 2.106-0.351 0-0.351 0-0.702 0 0 0-0.351-0.351-0.702-0.351-0.702 0-0.702 0-1.054 0.351-4.564 0.351-10.532 2.457-12.287 3.862-1.755-1.053-9.83 0.702-11.234 1.404 0.702 1.053 2.809 0 4.564 0-1.053 0.351-2.106 0.702-2.458 1.404-0.351 0-0.351 0-0.702 0-0.351-1.053-1.404 0-1.755-0.351h0.351c-0.351-1.404-1.404-2.106-3.16-1.755 0 0.702 0 1.053-0.351 1.755 0.702 0 2.809-1.053 2.809 0-0.351 0-0.351 0.351 0 0.351-0.702 0.702-1.755 0.702-2.458 1.054-1.404 0-3.16 0-4.563 0-0.351-0.351-0.702-0.351-1.405-0.703-0.351 0.351-1.053 0.351-1.404 0.703-2.106 0-4.564 0.351-6.319 0.702 0-0.702 0-1.404-0.702-1.405-1.053 1.404-3.16-0.351-5.617 0.352-2.457-0.702 1.404 1.053 4.915 1.755-0.351 0.351-0.702 0.702-1.756 1.053M116.068 308.271c-4.915-4.564-15.096-6.67-16.851-10.181-2.809-0.351-7.021-5.617-10.532-6.319 1.755 0 0.351-1.053 0-1.755-0.702 0.702-1.404 1.053-2.106 1.053 0-2.809-2.809-4.564-5.266-6.319 1.755 1.053 3.16 1.755 5.266 2.106 0-0.702 0-1.404 0.702-1.404 2.457 2.457 5.266 4.915 8.425 7.372 4.213 3.862 25.979 13.692 29.841 15.447 0 0-0.702 1.404-0.351 1.404 1.755 1.053 3.16-1.053 3.511 1.404-5.617 0.702-7.723-3.16-12.639-2.808M277.909 226.824v0.351 0c-0.351 0 0-0.351 0-0.351M136.079 64.281c-0.351 0.351-0.702 0.351-0.702 0.351 0-0.351 0.351-0.351 0.702-0.351M129.409 66.036c0 0.351 0 0.351 0 0 0 0.351 0 0.351 0 0 0 0.351 0 0 0 0M106.238 73.408v0c0.351-0.351 0.351-0.351 0.703-0.351-0.351 0-0.702 0.351-0.703 0.351M162.409 61.823c-0.702 0-1.053 0-1.404-0.351 0.351 0 0.702 0 1.053 0h0.351c0 0 0 0 0 0.351M168.728 62.525c-0.351-0.351-1.404-0.702-2.457-0.702 0-0.351 0.351-0.702 0.351-0.702 0.351 0 0.702 0 1.053 0 0 0 0.351 0 0.351 0.351 0 0 0 0 0-0.351 0.351 0 0.351 0 0.702 0 0.351 0.702 0.702 1.053 0 1.404M180.313 63.579c-1.755 0.351-2.809-0.351-4.564-1.405 1.053 0 2.457 0.351 3.511 0.702 0.351 0 0.702 0.351 1.053 0.703M305.292 113.43c-0.702 0.351-1.053 0.351-1.755-1.053-5.617-11.936-15.798-29.138-30.543-43.532-14.394-14.745-33.702-26.681-51.255-33.001 1.053 0.351 2.457 1.053 1.755 1.756-15.447-5.968-30.192-9.479-44.234-10.883-37.915-5.968-77.585 2.106-108.128 21.766 0.351 0.702 0.351 1.053-0.702 1.755-11.234 7.021-27.032 19.309-39.671 35.458-12.638 16.149-22.468 36.511-26.681 54.766 0.351-1.053 0.702-2.809 1.405-2.107-9.128 36.16-6.67 67.053 5.968 93.735 0.702-0.702-1.755-4.213 0.351-3.862 1.404 3.862 3.16 8.075 5.266 11.936 2.457 5.617 5.266 12.989 9.128 14.745-9.83-19.309-16.5-41.426-17.203-61.085 1.404 2.809 1.053 8.777 3.16 11.234 0.702-13.34-2.457-31.245 2.106-43.883-1.053 6.67-1.755 15.798-1.053 24.925 0 6.67 3.16 25.277 5.266 27.032-0.351-0.351-0.351-2.106 0-2.106 1.053 2.106-1.404 3.16 0.351 3.511 0-0.702 0.351-0.702 0.702-0.703 3.511 7.723 8.075 19.66 11.585 25.628 4.213 7.723 9.83 14.745 16.149 21.064 0 0.351 0.351 0.351 0.352 0.702 0.702 1.755 3.16 3.862 3.861 5.266 0.351 0.702-0.351 1.755 0 2.458 5.266 9.83 12.989 19.66 22.468 27.383 5.968 7.021 15.447 14.394 27.032 20.713 11.234 5.968 24.223 10.883 36.16 13.691 8.426 2.106 18.606 2.457 24.926 3.862 8.426 1.755 23.17-0.702 30.542-2.107 44.234-6.67 88.117-36.862 110.235-80.393 22.819-43.883 22.117-97.596 2.457-138.671"
                                      fill="#fbfbf8" fill-rule="nonzero" stroke="none" stroke-width="1"
                                      stroke-linecap="butt" stroke-linejoin="miter" stroke-miterlimit="10"
                                      stroke-dasharray="" stroke-dashoffset="0" font-family="none" font-weight="none"
                                      font-size="none" text-anchor="none" style="mix-blend-mode: normal"
                                      data-fill-palette-color="tertiary"></path>
                            </g>
                            <g transform="matrix(1,0,0,1,80,164.1339756430944)">
                                <svg viewBox="0 0 160 31.732048713811196" height="31.732048713811196" width="160">
                                    <g>
                                        <svg viewBox="0 0 426.0932442686117 84.505072398484" height="31.732048713811196"
                                             width="160">
                                            <g>
                                                <svg viewBox="0 0 426.0932442686117 84.505072398484"
                                                     height="84.505072398484" width="426.0932442686117">
                                                    <g>
                                                        <svg viewBox="0 0 426.0932442686117 84.505072398484"
                                                             height="84.505072398484" width="426.0932442686117">
                                                            <g>
                                                                <svg viewBox="0 0 426.0932442686117 59.09492187499999"
                                                                     height="59.09492187499999"
                                                                     width="426.0932442686117">
                                                                    <g>
                                                                        <svg>
                                                                            <g></g>
                                                                            <g></g>
                                                                        </svg>
                                                                    </g>
                                                                    <g>
                                                                        <svg>
                                                                            <g>
                                                                                <svg></svg>
                                                                            </g>
                                                                            <g></g>
                                                                        </svg>
                                                                    </g>
                                                                    <g id="text-0">
                                                                        <svg viewBox="0 0 426.0932442686117 59.09492187499999"
                                                                             height="59.09492187499999"
                                                                             width="426.0932442686117">
                                                                            <g transform="matrix(1,0,0,1,0,11.041601562499995)">
                                                                                <svg width="125.1953125"
                                                                                     viewBox="2 -36.040000915527344 125.19000244140625 36.53000259399414"
                                                                                     height="36.5234375"
                                                                                     data-palette-color="#fbfbf8">
                                                                                    <path d="M32.5-18.48L32.5-17.04Q32.5-11.57 30.57-7.65 28.64-3.74 25.22-1.62 21.8 0.49 17.31 0.49L17.31 0.49Q12.82 0.49 9.36-1.62 5.91-3.74 3.96-7.65 2-11.57 2-17.04L2-17.04 2-18.48Q2-23.95 3.94-27.87 5.88-31.79 9.33-33.91 12.77-36.04 17.26-36.04L17.26-36.04Q21.75-36.04 25.18-33.91 28.61-31.79 30.55-27.87 32.5-23.95 32.5-18.48L32.5-18.48ZM24.76-17.04L24.76-18.53Q24.76-22.19 23.88-24.68 23-27.17 21.31-28.44 19.63-29.71 17.26-29.71L17.26-29.71Q14.84-29.71 13.18-28.44 11.52-27.17 10.66-24.68 9.79-22.19 9.79-18.53L9.79-18.53 9.79-17.04Q9.79-13.4 10.67-10.9 11.55-8.4 13.22-7.1 14.89-5.81 17.31-5.81L17.31-5.81Q19.68-5.81 21.35-7.1 23.02-8.4 23.89-10.9 24.76-13.4 24.76-17.04L24.76-17.04ZM51.58-12.38L42.65-12.38 42.65-18.55 51.58-18.55Q53.61-18.55 54.87-19.21 56.13-19.87 56.71-21.02 57.3-22.17 57.3-23.66L57.3-23.66Q57.3-25.15 56.71-26.45 56.13-27.76 54.87-28.55 53.61-29.35 51.58-29.35L51.58-29.35 45.29-29.35 45.29 0 37.6 0 37.6-35.55 51.58-35.55Q55.81-35.55 58.84-34.01 61.86-32.47 63.47-29.8 65.09-27.12 65.09-23.71L65.09-23.71Q65.09-20.24 63.47-17.7 61.86-15.16 58.84-13.77 55.81-12.38 51.58-12.38L51.58-12.38ZM93.96-6.18L93.96 0 75.19 0 75.19-6.18 93.96-6.18ZM77.66-35.55L77.66 0 69.97 0 69.97-35.55 77.66-35.55ZM91.52-21.26L91.52-15.28 75.19-15.28 75.19-21.26 91.52-21.26ZM93.94-35.55L93.94-29.35 75.19-29.35 75.19-35.55 93.94-35.55ZM127.19-35.55L127.19 0 119.52 0 105.73-22.88 105.73 0 98.06 0 98.06-35.55 105.73-35.55 119.55-12.65 119.55-35.55 127.19-35.55Z"
                                                                                          opacity="1"
                                                                                          transform="matrix(1,0,0,1,0,0)"
                                                                                          fill="#fbfbf8"
                                                                                          class="undefined-o-0"></path>
                                                                                </svg>
                                                                            </g>
                                                                            <g>
                                                                                <svg xmlns="http://www.w3.org/2000/svg"
                                                                                     version="1.1" x="139.147265625"
                                                                                     y="0"
                                                                                     viewBox="5.959999084472656 18.750001907348633 89.04000091552734 54.399993896484375"
                                                                                     enable-background="new 0 0 100 100"
                                                                                     xml:space="preserve"
                                                                                     height="59.09492187499999"
                                                                                     width="96.72449426861175"
                                                                                     class="icon-c-0"
                                                                                     data-fill-palette-color="accent"
                                                                                     id="c-0"><path d="M89.55 40.81H66.46v-8.65c0.01-0.93 0.33-8.95 8.93-8.95s8.92 8.02 8.93 8.94v2.9h4.46v-2.9c0-4.64-2.8-13.4-13.39-13.4C64.8 18.75 62 27.51 62 32.15v8.66h-0.18c-3.01 0-5.45 2.51-5.45 5.6v0.71H15.73c-5.38 0-9.77 4.38-9.77 9.76 0 5.4 4.39 9.77 9.77 9.77h40.64v0.9c0 3.09 2.44 5.6 5.45 5.6h27.73c3.01 0 5.45-2.51 5.45-5.6V46.41C95 43.32 92.56 40.81 89.55 40.81zM55.98 63.4H15.73c-3.59 0-6.51-2.92-6.51-6.52 0-3.58 2.92-6.51 6.51-6.51h40.25V63.4zM78.87 63.4h-7.52l1.95-5.99c-1.17-0.64-1.95-1.88-1.95-3.3 0-2.07 1.68-3.75 3.76-3.75 2.07 0 3.76 1.68 3.76 3.75 0 1.42-0.79 2.66-1.95 3.3L78.87 63.4z" fill="#ffff00" data-fill-palette-color="accent"></path><polygon
                                                                                        points="20.61,56.873 24.26,59.692 23.09,61.212 20.01,58.833 20.01,61.933 18.08,61.933 18.08,58.833 15.01,61.212   13.83,59.692 17.48,56.873 13.83,54.053 15,52.533 18.08,54.913 18.08,51.813 20.01,51.813 20.01,54.913 23.09,52.533 24.26,54.053   "
                                                                                        fill="#ffff00"
                                                                                        data-fill-palette-color="accent"></polygon><polygon
                                                                                        points="35.36,56.873 39.01,59.692 37.84,61.212 34.76,58.833 34.76,61.933 32.83,61.933 32.83,58.833 29.76,61.212   28.58,59.692 32.23,56.873 28.58,54.053 29.75,52.533 32.83,54.913 32.83,51.813 34.76,51.813 34.76,54.913 37.84,52.533   39.01,54.053 "
                                                                                        fill="#ffff00"
                                                                                        data-fill-palette-color="accent"></polygon><polygon
                                                                                        points="50.11,56.873 53.76,59.692 52.59,61.212 49.51,58.833 49.51,61.933 47.58,61.933 47.58,58.833 44.51,61.212   43.33,59.692 46.98,56.873 43.33,54.053 44.5,52.533 47.58,54.913 47.58,51.813 49.51,51.813 49.51,54.913 52.59,52.533   53.76,54.053 "
                                                                                        fill="#ffff00"
                                                                                        data-fill-palette-color="accent"></polygon></svg>
                                                                            </g>
                                                                            <g transform="matrix(1,0,0,1,249.82371301861173,11.529882812499995)">
                                                                                <svg width="176.26953125"
                                                                                     viewBox="3.049999952316284 -35.54999923706055 176.25999450683594 35.54999923706055"
                                                                                     height="35.546875"
                                                                                     data-palette-color="#fbfbf8">
                                                                                    <path d="M26.12-6.18L26.12 0 8.28 0 8.28-6.18 26.12-6.18ZM10.72-35.55L10.72 0 3.05 0 3.05-35.55 10.72-35.55ZM54.15-6.18L54.15 0 35.37 0 35.37-6.18 54.15-6.18ZM37.84-35.55L37.84 0 30.15 0 30.15-35.55 37.84-35.55ZM51.71-21.26L51.71-15.28 35.37-15.28 35.37-21.26 51.71-21.26ZM54.12-35.55L54.12-29.35 35.37-29.35 35.37-35.55 54.12-35.55ZM72.97-28.81L63.5 0 55.32 0 68.53-35.55 73.7-35.55 72.97-28.81ZM80.73 0L71.24-28.81 70.43-35.55 75.63-35.55 88.91 0 80.73 0ZM80.49-13.28L80.49-7.08 61.64-7.08 61.64-13.28 80.49-13.28ZM99.75-35.55L99.75 0 92.06 0 92.06-35.55 99.75-35.55ZM120.99-35.55L107-17.77 98.8-8.91 97.4-16.38 102.85-24.07 111.56-35.55 120.99-35.55ZM112.18 0L102.09-16.19 107.78-21 121.28 0 112.18 0ZM147.84-6.18L147.84 0 129.07 0 129.07-6.18 147.84-6.18ZM131.53-35.55L131.53 0 123.84 0 123.84-35.55 131.53-35.55ZM145.4-21.26L145.4-15.28 129.07-15.28 129.07-21.26 145.4-21.26ZM147.82-35.55L147.82-29.35 129.07-29.35 129.07-35.55 147.82-35.55ZM162.95 0L155.26 0 155.31-6.18 162.95-6.18Q165.76-6.18 167.68-7.42 169.59-8.67 170.57-11.08 171.55-13.5 171.55-17.02L171.55-17.02 171.55-18.58Q171.55-22.12 170.57-24.51 169.59-26.9 167.69-28.13 165.78-29.35 163-29.35L163-29.35 155.11-29.35 155.11-35.55 163-35.55Q167.81-35.55 171.48-33.4 175.16-31.25 177.23-27.43 179.31-23.61 179.31-18.53L179.31-18.53 179.31-17.02Q179.31-11.94 177.23-8.11 175.16-4.27 171.48-2.14 167.81 0 162.95 0L162.95 0ZM159.63-35.55L159.63 0 151.94 0 151.94-35.55 159.63-35.55Z"
                                                                                          opacity="1"
                                                                                          transform="matrix(1,0,0,1,0,0)"
                                                                                          fill="#fbfbf8"
                                                                                          class="undefined-o-1"></path>
                                                                                </svg>
                                                                            </g>
                                                                        </svg>
                                                                    </g>
                                                                </svg>
                                                            </g>
                                                            <g transform="matrix(1,0,0,1,81.38380965530484,67.48668593749998)">
                                                                <svg viewBox="0 0 263.32562495800204 17.018386460984015"
                                                                     height="17.018386460984015"
                                                                     width="263.32562495800204">
                                                                    <g transform="matrix(1,0,0,1,0,0)">
                                                                        <svg width="263.32562495800204"
                                                                             viewBox="2.8600001335144043 -37.5 587.7200317382812 37.9900016784668"
                                                                             height="17.018386460984015"
                                                                             data-palette-color="#fbfbf8">
                                                                            <path d="M10.03-35.55L10.03-5.96 22.63-5.96 22.63 0 2.86 0 2.86-35.55 10.03-35.55ZM37.11 0.49L37.11 0.49Q31.78 0.49 28.81-2.69 25.83-5.86 25.83-11.77L25.83-11.77 25.83-13.87Q25.83-20.12 28.56-23.51 31.3-26.9 36.4-26.9L36.4-26.9Q41.38-26.9 43.89-23.72 46.41-20.53 46.46-14.28L46.46-14.28 46.46-10.89 32.71-10.89Q32.86-7.96 34.01-6.6 35.15-5.25 37.55-5.25L37.55-5.25Q41.01-5.25 43.33-7.62L43.33-7.62 46.04-3.44Q44.77-1.68 42.36-0.6 39.94 0.49 37.11 0.49ZM32.76-15.72L32.76-15.72 39.67-15.72 39.67-16.36Q39.62-18.73 38.89-19.95 38.16-21.17 36.35-21.17 34.54-21.17 33.73-19.87 32.91-18.58 32.76-15.72ZM69.87 0L62.91 0Q62.62-0.61 62.32-2.05L62.32-2.05Q60.47 0.49 57.29 0.49L57.29 0.49Q53.97 0.49 51.79-1.71 49.6-3.91 49.6-7.4L49.6-7.4Q49.6-11.55 52.25-13.82 54.9-16.09 59.88-16.14L59.88-16.14 61.98-16.14 61.98-18.26Q61.98-20.04 61.37-20.78 60.76-21.51 59.59-21.51L59.59-21.51Q57-21.51 57-18.48L57-18.48 50.09-18.48Q50.09-22.14 52.84-24.52 55.59-26.9 59.79-26.9L59.79-26.9Q64.13-26.9 66.51-24.65 68.89-22.39 68.89-18.19L68.89-18.19 68.89-5.76Q68.94-2.34 69.87-0.42L69.87-0.42 69.87 0ZM58.83-4.93L58.83-4.93Q59.98-4.93 60.79-5.4 61.59-5.86 61.98-6.49L61.98-6.49 61.98-11.99 60.32-11.99Q58.56-11.99 57.55-10.86 56.54-9.74 56.54-7.86L56.54-7.86Q56.54-4.93 58.83-4.93ZM87.49 0L82.66-10.18 80.8-8.11 80.8 0 73.89 0 73.89-37.5 80.8-37.5 80.8-17.24 81.66-18.51 86.44-26.42 94.67-26.42 87-15.53 95.4 0 87.49 0ZM108 0.49L108 0.49Q102.68 0.49 99.7-2.69 96.72-5.86 96.72-11.77L96.72-11.77 96.72-13.87Q96.72-20.12 99.45-23.51 102.19-26.9 107.29-26.9L107.29-26.9Q112.27-26.9 114.78-23.72 117.3-20.53 117.35-14.28L117.35-14.28 117.35-10.89 103.6-10.89Q103.75-7.96 104.9-6.6 106.04-5.25 108.44-5.25L108.44-5.25Q111.9-5.25 114.22-7.62L114.22-7.62 116.93-3.44Q115.66-1.68 113.25-0.6 110.83 0.49 108 0.49ZM103.65-15.72L103.65-15.72 110.56-15.72 110.56-16.36Q110.51-18.73 109.78-19.95 109.05-21.17 107.24-21.17 105.43-21.17 104.62-19.87 103.8-18.58 103.65-15.72ZM120.32-12.01L120.32-14.01Q120.32-20.51 122.52-23.71 124.72-26.9 128.92-26.9L128.92-26.9Q131.97-26.9 134-24.27L134-24.27 134-37.5 140.95-37.5 140.95 0 134.68 0 134.36-2.69Q132.24 0.49 128.89 0.49L128.89 0.49Q124.74 0.49 122.56-2.69 120.37-5.86 120.32-12.01L120.32-12.01ZM127.26-14.11L127.26-12.28Q127.26-8.37 128.09-6.82 128.92-5.27 130.9-5.27L130.9-5.27Q132.95-5.27 134-7.1L134-7.1 134-19.17Q132.97-21.12 130.92-21.12L130.92-21.12Q129.02-21.12 128.14-19.58 127.26-18.04 127.26-14.11L127.26-14.11ZM169.86-12.5L165.07-12.5 165.07 0 157.89 0 157.89-35.55 170-35.55Q175.28-35.55 178.41-32.28 181.55-29 181.55-23.78 181.55-18.55 178.45-15.53 175.35-12.5 169.86-12.5L169.86-12.5ZM165.07-29.57L165.07-18.48 170-18.48Q172.05-18.48 173.18-19.82 174.3-21.17 174.3-23.73L174.3-23.73Q174.3-26.39 173.15-27.97 172-29.54 170.08-29.57L170.08-29.57 165.07-29.57ZM205.23 0L198.27 0Q197.98-0.61 197.69-2.05L197.69-2.05Q195.83 0.49 192.66 0.49L192.66 0.49Q189.34 0.49 187.15-1.71 184.97-3.91 184.97-7.4L184.97-7.4Q184.97-11.55 187.61-13.82 190.26-16.09 195.24-16.14L195.24-16.14 197.34-16.14 197.34-18.26Q197.34-20.04 196.73-20.78 196.12-21.51 194.95-21.51L194.95-21.51Q192.36-21.51 192.36-18.48L192.36-18.48 185.45-18.48Q185.45-22.14 188.2-24.52 190.95-26.9 195.15-26.9L195.15-26.9Q199.49-26.9 201.87-24.65 204.25-22.39 204.25-18.19L204.25-18.19 204.25-5.76Q204.3-2.34 205.23-0.42L205.23-0.42 205.23 0ZM194.19-4.93L194.19-4.93Q195.34-4.93 196.15-5.4 196.95-5.86 197.34-6.49L197.34-6.49 197.34-11.99 195.68-11.99Q193.93-11.99 192.91-10.86 191.9-9.74 191.9-7.86L191.9-7.86Q191.9-4.93 194.19-4.93ZM220.95-7.08L220.95-7.08Q220.95-7.96 220.11-8.7 219.26-9.45 216.36-10.72L216.36-10.72Q212.09-12.45 210.49-14.31 208.89-16.16 208.89-18.92L208.89-18.92Q208.89-22.39 211.39-24.65 213.89-26.9 218.02-26.9L218.02-26.9Q222.37-26.9 224.98-24.66 227.59-22.41 227.59-18.63L227.59-18.63 220.68-18.63Q220.68-21.85 218-21.85L218-21.85Q216.9-21.85 216.19-21.17 215.48-20.48 215.48-19.26L215.48-19.26Q215.48-18.38 216.26-17.71 217.04-17.04 219.95-15.8L219.95-15.8Q224.17-14.23 225.92-12.32 227.66-10.4 227.66-7.35L227.66-7.35Q227.66-3.81 225-1.66 222.34 0.49 218.02 0.49L218.02 0.49Q215.11 0.49 212.89-0.65 210.67-1.78 209.41-3.81 208.16-5.83 208.16-8.18L208.16-8.18 214.72-8.18Q214.77-6.37 215.57-5.47 216.36-4.57 218.17-4.57L218.17-4.57Q220.95-4.57 220.95-7.08ZM243.65-7.08L243.65-7.08Q243.65-7.96 242.81-8.7 241.97-9.45 239.06-10.72L239.06-10.72Q234.79-12.45 233.19-14.31 231.59-16.16 231.59-18.92L231.59-18.92Q231.59-22.39 234.09-24.65 236.6-26.9 240.72-26.9L240.72-26.9Q245.07-26.9 247.68-24.66 250.29-22.41 250.29-18.63L250.29-18.63 243.38-18.63Q243.38-21.85 240.7-21.85L240.7-21.85Q239.6-21.85 238.89-21.17 238.18-20.48 238.18-19.26L238.18-19.26Q238.18-18.38 238.96-17.71 239.75-17.04 242.65-15.8L242.65-15.8Q246.87-14.23 248.62-12.32 250.37-10.4 250.37-7.35L250.37-7.35Q250.37-3.81 247.7-1.66 245.04 0.49 240.72 0.49L240.72 0.49Q237.82 0.49 235.6-0.65 233.37-1.78 232.12-3.81 230.86-5.83 230.86-8.18L230.86-8.18 237.43-8.18Q237.48-6.37 238.27-5.47 239.06-4.57 240.87-4.57L240.87-4.57Q243.65-4.57 243.65-7.08ZM270.38-26.42L273.9-11.6 276.27-26.42 282.88-26.42 277.41 0 271.68 0 267.94-15.28 264.21 0 258.44 0 252.98-26.42 259.62-26.42 261.96-11.57 265.48-26.42 270.38-26.42ZM285.49-12.38L285.49-14.06Q285.49-20.07 288.32-23.49 291.16-26.9 296.16-26.9L296.16-26.9Q301.22-26.9 304.05-23.49 306.88-20.07 306.88-14.01L306.88-14.01 306.88-12.33Q306.88-6.3 304.07-2.91 301.26 0.49 296.21 0.49L296.21 0.49Q291.13 0.49 288.31-2.92 285.49-6.32 285.49-12.38L285.49-12.38ZM292.43-14.06L292.43-12.33Q292.43-5.25 296.21-5.25L296.21-5.25Q299.7-5.25 299.97-11.16L299.97-11.16 299.99-14.06Q299.99-17.68 298.99-19.42 297.99-21.17 296.16-21.17L296.16-21.17Q294.4-21.17 293.41-19.42 292.43-17.68 292.43-14.06L292.43-14.06ZM324.28-26.59L324.21-19.75 321.92-19.95Q319.08-19.95 318.08-17.46L318.08-17.46 318.08 0 311.15 0 311.15-26.42 317.67-26.42 317.86-23.56Q319.5-26.9 322.38-26.9L322.38-26.9Q323.55-26.9 324.28-26.59L324.28-26.59ZM326.36-12.01L326.36-14.01Q326.36-20.51 328.55-23.71 330.75-26.9 334.95-26.9L334.95-26.9Q338-26.9 340.03-24.27L340.03-24.27 340.03-37.5 346.99-37.5 346.99 0 340.71 0 340.39-2.69Q338.27 0.49 334.93 0.49L334.93 0.49Q330.78 0.49 328.59-2.69 326.41-5.86 326.36-12.01L326.36-12.01ZM333.29-14.11L333.29-12.28Q333.29-8.37 334.12-6.82 334.95-5.27 336.93-5.27L336.93-5.27Q338.98-5.27 340.03-7.1L340.03-7.1 340.03-19.17Q339-21.12 336.95-21.12L336.95-21.12Q335.05-21.12 334.17-19.58 333.29-18.04 333.29-14.11L333.29-14.11ZM363.76-7.08L363.76-7.08Q363.76-7.96 362.91-8.7 362.07-9.45 359.17-10.72L359.17-10.72Q354.89-12.45 353.3-14.31 351.7-16.16 351.7-18.92L351.7-18.92Q351.7-22.39 354.2-24.65 356.7-26.9 360.83-26.9L360.83-26.9Q365.17-26.9 367.78-24.66 370.4-22.41 370.4-18.63L370.4-18.63 363.49-18.63Q363.49-21.85 360.8-21.85L360.8-21.85Q359.7-21.85 359-21.17 358.29-20.48 358.29-19.26L358.29-19.26Q358.29-18.38 359.07-17.71 359.85-17.04 362.76-15.8L362.76-15.8Q366.98-14.23 368.72-12.32 370.47-10.4 370.47-7.35L370.47-7.35Q370.47-3.81 367.81-1.66 365.15 0.49 360.83 0.49L360.83 0.49Q357.92 0.49 355.7-0.65 353.48-1.78 352.22-3.81 350.96-5.83 350.96-8.18L350.96-8.18 357.53-8.18Q357.58-6.37 358.37-5.47 359.17-4.57 360.97-4.57L360.97-4.57Q363.76-4.57 363.76-7.08ZM405.79 0L398.83 0Q398.54-0.61 398.25-2.05L398.25-2.05Q396.39 0.49 393.22 0.49L393.22 0.49Q389.9 0.49 387.71-1.71 385.53-3.91 385.53-7.4L385.53-7.4Q385.53-11.55 388.18-13.82 390.83-16.09 395.81-16.14L395.81-16.14 397.91-16.14 397.91-18.26Q397.91-20.04 397.3-20.78 396.69-21.51 395.51-21.51L395.51-21.51Q392.93-21.51 392.93-18.48L392.93-18.48 386.02-18.48Q386.02-22.14 388.76-24.52 391.51-26.9 395.71-26.9L395.71-26.9Q400.06-26.9 402.44-24.65 404.82-22.39 404.82-18.19L404.82-18.19 404.82-5.76Q404.86-2.34 405.79-0.42L405.79-0.42 405.79 0ZM394.76-4.93L394.76-4.93Q395.9-4.93 396.71-5.4 397.52-5.86 397.91-6.49L397.91-6.49 397.91-11.99 396.25-11.99Q394.49-11.99 393.48-10.86 392.46-9.74 392.46-7.86L392.46-7.86Q392.46-4.93 394.76-4.93ZM422.93-26.59L422.86-19.75 420.56-19.95Q417.73-19.95 416.73-17.46L416.73-17.46 416.73 0 409.79 0 409.79-26.42 416.31-26.42 416.51-23.56Q418.14-26.9 421.02-26.9L421.02-26.9Q422.2-26.9 422.93-26.59L422.93-26.59ZM436.6 0.49L436.6 0.49Q431.28 0.49 428.3-2.69 425.32-5.86 425.32-11.77L425.32-11.77 425.32-13.87Q425.32-20.12 428.05-23.51 430.79-26.9 435.89-26.9L435.89-26.9Q440.87-26.9 443.39-23.72 445.9-20.53 445.95-14.28L445.95-14.28 445.95-10.89 432.2-10.89Q432.35-7.96 433.5-6.6 434.64-5.25 437.04-5.25L437.04-5.25Q440.5-5.25 442.82-7.62L442.82-7.62 445.53-3.44Q444.26-1.68 441.85-0.6 439.43 0.49 436.6 0.49ZM432.25-15.72L432.25-15.72 439.16-15.72 439.16-16.36Q439.11-18.73 438.38-19.95 437.65-21.17 435.84-21.17 434.03-21.17 433.22-19.87 432.4-18.58 432.25-15.72ZM474.56 0L474.36-2.42Q472.21 0.49 468.6 0.49L468.6 0.49Q464.96 0.49 463.08-2.01 461.2-4.52 461.2-9.3L461.2-9.3 461.2-26.42 468.11-26.42 468.11-9.13Q468.16-5.27 470.68-5.27L470.68-5.27Q473.04-5.27 474.09-7.32L474.09-7.32 474.09-26.42 481.05-26.42 481.05 0 474.56 0ZM485.81-26.42L492.3-26.42 492.5-23.8Q494.84-26.9 498.63-26.9L498.63-26.9Q505.44-26.9 505.63-17.36L505.63-17.36 505.63 0 498.7 0 498.7-16.85Q498.7-19.09 498.03-20.1 497.36-21.12 495.67-21.12L495.67-21.12Q493.79-21.12 492.74-19.19L492.74-19.19 492.74 0 485.81 0 485.81-26.42ZM520.13-5.25L520.13-5.25Q523.14-5.25 523.18-9.16L523.18-9.16 529.68-9.16Q529.63-4.83 527.02-2.17 524.41 0.49 520.28 0.49L520.28 0.49Q515.18 0.49 512.49-2.69 509.81-5.86 509.76-12.04L509.76-12.04 509.76-14.14Q509.76-20.36 512.41-23.63 515.05-26.9 520.23-26.9L520.23-26.9Q524.6-26.9 527.12-24.21 529.63-21.51 529.68-16.55L529.68-16.55 523.18-16.55Q523.16-18.77 522.45-19.97 521.74-21.17 520.11-21.17L520.11-21.17Q518.3-21.17 517.52-19.89 516.74-18.6 516.69-14.92L516.69-14.92 516.69-12.23Q516.69-9.01 517.01-7.73 517.33-6.45 518.06-5.85 518.79-5.25 520.13-5.25ZM532.78-12.38L532.78-14.06Q532.78-20.07 535.61-23.49 538.44-26.9 543.45-26.9L543.45-26.9Q548.5-26.9 551.33-23.49 554.16-20.07 554.16-14.01L554.16-14.01 554.16-12.33Q554.16-6.3 551.36-2.91 548.55 0.49 543.49 0.49L543.49 0.49Q538.42 0.49 535.6-2.92 532.78-6.32 532.78-12.38L532.78-12.38ZM539.71-14.06L539.71-12.33Q539.71-5.25 543.49-5.25L543.49-5.25Q546.99-5.25 547.25-11.16L547.25-11.16 547.28-14.06Q547.28-17.68 546.28-19.42 545.28-21.17 543.45-21.17L543.45-21.17Q541.69-21.17 540.7-19.42 539.71-17.68 539.71-14.06L539.71-14.06ZM557.65-12.38L557.65-14.06Q557.65-20.07 560.48-23.49 563.32-26.9 568.32-26.9L568.32-26.9Q573.38-26.9 576.21-23.49 579.04-20.07 579.04-14.01L579.04-14.01 579.04-12.33Q579.04-6.3 576.23-2.91 573.42 0.49 568.37 0.49L568.37 0.49Q563.29 0.49 560.47-2.92 557.65-6.32 557.65-12.38L557.65-12.38ZM564.59-14.06L564.59-12.33Q564.59-5.25 568.37-5.25L568.37-5.25Q571.86-5.25 572.13-11.16L572.13-11.16 572.15-14.06Q572.15-17.68 571.15-19.42 570.15-21.17 568.32-21.17L568.32-21.17Q566.56-21.17 565.57-19.42 564.59-17.68 564.59-14.06L564.59-14.06ZM590.58-37.5L590.58 0 583.65 0 583.65-37.5 590.58-37.5Z"
                                                                                  opacity="1"
                                                                                  transform="matrix(1,0,0,1,0,0)"
                                                                                  fill="#fbfbf8"
                                                                                  class="undefined-text-1"
                                                                                  data-fill-palette-color="secondary"
                                                                                  id="text-1"></path>
                                                                        </svg>
                                                                    </g>
                                                                </svg>
                                                            </g>
                                                        </svg>
                                                    </g>
                                                </svg>
                                            </g>
                                        </svg>
                                    </g>
                                </svg>
                            </g>
                        </svg>
                    </g>
                    <defs></defs>
                </svg>
                <rect width="320" height="360" fill="none" stroke="none" visibility="hidden"></rect>
            </g>
        </svg>
    </g>
</svg>