<?xml version="1.0" encoding="UTF-8" standalone="no"?>
<svg
   viewBox="0 0 1600 1600"
   height="1600"
   width="1600"
   xml:space="preserve"
   id="svg2"
   version="1.1"
   xmlns="http://www.w3.org/2000/svg"
   xmlns:svg="http://www.w3.org/2000/svg"
   xmlns:rdf="http://www.w3.org/1999/02/22-rdf-syntax-ns#"
   xmlns:cc="http://creativecommons.org/ns#"
   xmlns:dc="http://purl.org/dc/elements/1.1/"><metadata
     id="metadata8"><rdf:RDF><cc:Work
         rdf:about=""><dc:format>image/svg+xml</dc:format><dc:type
           rdf:resource="http://purl.org/dc/dcmitype/StillImage" /></cc:Work></rdf:RDF></metadata><defs
     id="defs6" /><g
     transform="matrix(1.3333333,0,0,1.3333333,0,4e-5)"
     id="g10"><g
       transform="matrix(2.111,0,0,2.111,175,175)"
       id="g24"><g
         transform="matrix(4.47392,0,0,4.47392,-22.369598,-25.259751)"
         id="g26"><g
           id="g28"><path
             id="path30"
             style="fill:#2596be;fill-opacity:1;fill-rule:nonzero;stroke:none"
             d="m 50,95.646 c 24.854,0 45,-20.147 45,-45 0,-24.853 -20.146,-45 -45,-45 -24.854,0 -45,20.147 -45,45 0,24.853 20.146,45 45,45 z m 0,-89 c 24.262,0 44,19.738 44,44 0,24.262 -19.738,44 -44,44 -24.262,0 -44,-19.738 -44,-44 0,-24.262 19.738,-44 44,-44 z" /></g></g></g><g
       transform="translate(444.83479,637.14723)"
       id="g32"><g
         transform="translate(32.250992,0.509645)"
         id="g34"><g
           transform="translate(0,-26.705414)"
           id="g36"><g
             transform="matrix(1,0,0,-1,0,1200)"
             id="g38"><text
   id="text42"
   style="font-variant:normal;font-weight:normal;font-size:101.929px;font-family:Lato;-inkscape-font-specification:Lato-Regular;writing-mode:lr-tb;fill:#2596be;fill-opacity:1;fill-rule:nonzero;stroke:none"
   transform="matrix(1,0,0,-1,0,1099.396)"><tspan
     id="tspan40"
     y="0"
     x="0 80.574921 137.70616 191.5247">Open</tspan></text>
</g></g></g><g
         transform="translate(0,132.01368)"
         id="g44"><g
           transform="translate(0,-26.705414)"
           id="g46"><g
             transform="matrix(1,0,0,-1,0,1200)"
             id="g48"><text
   id="text52"
   style="font-variant:normal;font-weight:normal;font-size:101.929px;font-family:Lato;-inkscape-font-specification:Lato-Regular;writing-mode:lr-tb;fill:#2596be;fill-opacity:1;fill-rule:nonzero;stroke:none"
   transform="matrix(1,0,0,-1,0,1099.396)"><tspan
     id="tspan50"
     y="0"
     x="0 48.620163 102.43871 153.09744 201.97243 255.79099">Leaked</tspan></text>
</g></g></g></g><g
       transform="translate(444.02867,281.05405)"
       id="g54"><g
         transform="matrix(2.557861,0,0,2.557861,9e-5,-0.01158)"
         id="g56"><g
           id="g58"><path
             id="path60"
             style="fill:#2596be;fill-opacity:1;fill-rule:nonzero;stroke:none"
             d="M 40.182,95.424 38.176,88 c -0.544,-2.014 -0.129,-4.119 1.139,-5.774 1.269,-1.657 3.192,-2.606 5.278,-2.606 4.208,0 7.913,2.837 9.01,6.899 l 1.028,3.807 h 3.405 L 57.04,86.64 55.372,86.193 C 55.087,86.117 54.851,85.919 54.725,85.651 54.6,85.384 54.599,85.075 54.723,84.807 l 0.891,-1.928 C 53.381,78.93 49.227,76.498 44.659,76.498 h -1.723 c -2.751,0 -5.288,1.252 -6.96,3.437 -1.672,2.185 -2.221,4.96 -1.503,7.616 l 2.127,7.875 h 3.582 z" /></g><g
           id="g62"><path
             id="path64"
             style="fill:#2596be;fill-opacity:1;fill-rule:nonzero;stroke:none"
             d="m 9.544,54.575 h 5.131 v 5.803 H 9.544 Z" /></g><g
           id="g66"><path
             id="path68"
             style="fill:#2596be;fill-opacity:1;fill-rule:nonzero;stroke:none"
             d="m 59.693,109.347 -2.811,0.409 -1.148,2.471 c -0.169,0.365 -0.53,0.579 -0.907,0.579 -0.141,0 -0.285,-0.03 -0.421,-0.093 -0.501,-0.232 -0.718,-0.827 -0.485,-1.328 l 1.376,-2.961 c 0.142,-0.306 0.429,-0.52 0.763,-0.568 l 2.606,-0.379 0.136,-5.726 c 0.006,-0.266 0.119,-0.519 0.312,-0.703 0.193,-0.183 0.456,-0.284 0.719,-0.273 l 3.348,0.105 -1.132,-3.455 h -26.21 c -10e-4,0 -0.002,0 -0.004,0 -10e-4,0 -0.002,0 -0.003,0 h -1.776 l 4.521,13.799 c 0.983,3 3.764,5.016 6.921,5.016 h 5.406 l -1.335,-5.839 c -2.411,-0.012 -4.369,-1.975 -4.369,-4.388 0,-2.421 1.97,-4.391 4.391,-4.391 2.421,0 4.391,1.97 4.391,4.391 0,1.728 -1.012,3.211 -2.467,3.927 l 1.44,6.3 h 7.663 c 1.785,0 3.409,-0.829 4.456,-2.274 0.915,-1.262 1.245,-2.795 0.945,-4.293 z" /></g><g
           id="g70"><path
             id="path72"
             style="fill:#2596be;fill-opacity:1;fill-rule:nonzero;stroke:none"
             d="m 49.591,103.622 c -1.318,0 -2.391,1.073 -2.391,2.391 0,1.318 1.072,2.391 2.391,2.391 1.319,0 2.391,-1.072 2.391,-2.391 0,-1.319 -1.073,-2.391 -2.391,-2.391 z" /></g><g
           id="g74"><path
             id="path76"
             style="fill:#2596be;fill-opacity:1;fill-rule:nonzero;stroke:none"
             d="M 51.878426,45.192676 67.64039,41.88954 71.699934,61.260949 55.93797,64.564085 Z" /></g><g
           id="g78"><path
             id="path80"
             style="fill:#2596be;fill-opacity:1;fill-rule:nonzero;stroke:none"
             d="M 87.941,70.583 H 23.052 c -0.001,0 -0.001,0 -0.002,0 -0.073,0 -0.147,-0.008 -0.221,-0.025 -0.015,-0.003 -0.026,-0.014 -0.04,-0.018 -0.098,-0.027 -0.188,-0.069 -0.272,-0.123 -0.018,-0.012 -0.04,-0.018 -0.058,-0.031 -0.095,-0.07 -0.176,-0.158 -0.241,-0.258 C 22.199,70.099 22.19,70.066 22.175,70.036 22.144,69.977 22.109,69.921 22.09,69.855 L 20.714,64.984 C 20.28,63.45 18.864,62.378 17.27,62.378 H 15.676 8.544 3.581 c -1.131,0 -2.171,0.518 -2.854,1.419 -0.683,0.903 -0.897,2.045 -0.59,3.133 l 13.968,49.443 c 0.845,2.992 3.607,5.082 6.716,5.082 h 87.407 L 95.465,76.276 c -0.946,-3.352 -4.04,-5.693 -7.524,-5.693 z M 66.693,115.14 c -1.428,1.97 -3.643,3.1 -6.076,3.1 h -15.12 c -4.024,0 -7.569,-2.569 -8.822,-6.394 l -4.95,-15.11 c -0.1,-0.305 -0.048,-0.639 0.141,-0.898 0.188,-0.259 0.489,-0.413 0.81,-0.413 h 1.853 l -1.986,-7.354 c -0.881,-3.262 -0.208,-6.671 1.846,-9.353 2.054,-2.682 5.169,-4.221 8.548,-4.221 h 1.723 c 5.48,0 10.447,3.022 12.961,7.887 0.142,0.274 0.149,0.598 0.02,0.878 l -0.603,1.305 1.078,0.289 c 0.344,0.092 0.614,0.361 0.707,0.705 l 1.486,5.502 c 0.081,0.3 0.018,0.622 -0.171,0.869 -0.189,0.247 -0.483,0.392 -0.794,0.392 h -5.476 c -0.452,0 -0.848,-0.303 -0.965,-0.739 l -1.228,-4.546 c -0.862,-3.192 -3.773,-5.421 -7.079,-5.421 -1.458,0 -2.804,0.664 -3.69,1.822 -0.886,1.158 -1.177,2.629 -0.796,4.037 l 2.146,7.946 h 20.519 c 0.432,0 0.816,0.278 0.95,0.688 l 1.802,5.5 c 0.018,0.057 0.012,0.113 0.02,0.17 0.009,0.058 0.031,0.112 0.029,0.173 0,0.009 -0.005,0.016 -0.006,0.025 -0.004,0.075 -0.03,0.143 -0.05,0.214 -0.016,0.056 -0.022,0.115 -0.047,0.166 -0.021,0.043 -0.055,0.075 -0.082,0.115 -0.047,0.07 -0.091,0.141 -0.153,0.197 -0.012,0.011 -0.029,0.016 -0.042,0.027 -0.09,0.073 -0.189,0.133 -0.3,0.17 -0.002,0.001 -0.004,0.003 -0.006,0.004 -0.026,0.008 -0.052,0.003 -0.078,0.009 -0.086,0.02 -0.172,0.046 -0.265,0.04 l -3.767,-0.119 -0.109,4.59 6.182,0.319 c 0.004,0 0.008,0.003 0.012,0.003 0.096,0.006 0.186,0.038 0.275,0.07 0.034,0.012 0.071,0.014 0.103,0.029 0.064,0.032 0.115,0.084 0.171,0.128 0.044,0.036 0.096,0.062 0.134,0.104 0.031,0.034 0.046,0.081 0.072,0.12 0.047,0.07 0.096,0.138 0.124,0.218 0.002,0.005 0.006,0.008 0.007,0.013 0.755,2.317 0.37,4.773 -1.058,6.744 z" /></g><g
           id="g82"><path
             id="path84"
             style="fill:#2596be;fill-opacity:1;fill-rule:nonzero;stroke:none"
             d="m 120.901,59.93 c -0.959,-1.204 -2.393,-1.895 -3.933,-1.895 H 73.071 l 0.795,3.795 c 0.113,0.541 -0.233,1.07 -0.773,1.184 l -17.72,3.714 c -0.068,0.015 -0.137,0.021 -0.205,0.021 -0.193,0 -0.383,-0.056 -0.547,-0.163 -0.222,-0.145 -0.377,-0.372 -0.432,-0.632 l -1.66,-7.919 H 30.73 c -2.359,0 -4.375,1.606 -4.901,3.906 l -1.522,6.643 h 63.634 c 4.374,0 8.26,2.94 9.449,7.149 l 12.059,42.686 12.421,-54.233 c 0.344,-1.501 -0.009,-3.052 -0.969,-4.256 z" /></g><g
           id="g86"><path
             id="path88"
             style="fill:#2596be;fill-opacity:1;fill-rule:nonzero;stroke:none"
             d="m 7.963961,27.045231 15.585336,-5.862817 7.711694,20.500272 -15.585336,5.862817 z" /></g><g
           id="g90"><path
             id="path92"
             style="fill:#2596be;fill-opacity:1;fill-rule:nonzero;stroke:none"
             d="M 65.249375,20.872753 71.894441,0.004527 87.759514,5.056441 81.114447,25.924666 Z" /></g><g
           id="g94"><path
             id="path96"
             style="fill:#2596be;fill-opacity:1;fill-rule:nonzero;stroke:none"
             d="m 92.482433,36.006618 3.17304,-1.193619 1.771063,4.70808 -3.17304,1.193619 z" /></g><g
           id="g98"><path
             id="path100"
             style="fill:#2596be;fill-opacity:1;fill-rule:nonzero;stroke:none"
             d="m 105.42879,10.125608 2.91388,-4.099953 2.76237,1.963248 -2.91388,4.099953 z" /></g><g
           id="g102"><path
             id="path104"
             style="fill:#2596be;fill-opacity:1;fill-rule:nonzero;stroke:none"
             d="m 34.745137,10.121963 2.913376,-4.100456 2.763528,1.963488 -2.913376,4.100456 z" /></g><g
           id="g106"><path
             id="path108"
             style="fill:#2596be;fill-opacity:1;fill-rule:nonzero;stroke:none"
             d="M 2.510123,3.393287 5.737064,2.354252 7.278759,7.142309 4.051818,8.181344 Z" /></g></g></g></g></svg>
